<?xml version="1.0" encoding="UTF-8" standalone="no"?>
<svg xmlns:dc="http://purl.org/dc/elements/1.1/" xmlns:cc="http://creativecommons.org/ns#" xmlns:rdf="http://www.w3.org/1999/02/22-rdf-syntax-ns#" xmlns:svg="http://www.w3.org/2000/svg" xmlns="http://www.w3.org/2000/svg" xmlns:xlink="http://www.w3.org/1999/xlink" xmlns:sodipodi="http://sodipodi.sourceforge.net/DTD/sodipodi-0.dtd" xmlns:inkscape="http://www.inkscape.org/namespaces/inkscape" inkscape:version="1.0 (4035a4fb49, 2020-05-01)" sodipodi:docname="logo test.svg" id="svg1183" version="1.1" viewBox="0 0 268 85" height="85" width="268">
  <metadata id="metadata1187">
    <rdf:RDF>
      <cc:Work rdf:about="">
        <dc:format>image/svg+xml</dc:format>
        <dc:type rdf:resource="http://purl.org/dc/dcmitype/StillImage"/>
      </cc:Work>
    </rdf:RDF>
  </metadata>
  <sodipodi:namedview inkscape:snap-center="true" inkscape:current-layer="svg1183" inkscape:window-maximized="0" inkscape:window-y="0" inkscape:window-x="0" inkscape:cy="32.923027" inkscape:cx="148.72753" inkscape:zoom="3.466934" showgrid="false" id="namedview1185" inkscape:window-height="973" inkscape:window-width="1904" inkscape:pageshadow="2" inkscape:pageopacity="0" guidetolerance="10" gridtolerance="10" objecttolerance="10" borderopacity="1" bordercolor="#666666" pagecolor="#ffffff"/>
  <defs id="defs1022">
    <path d="M0 .122h77.103v84.093H0z" id="a"/>
    <path d="M0 .122h38.553v39.57H0z" id="c"/>
    <path d="M0 .164h10.698v19.89H0z" id="e"/>
    <path d="M.037 4.168v2.764l2.631.85 3.354-1.01 1.754-2.71-.877-2.392L2.823.182" id="g"/>
    <path d="M.037 4.168v2.764l2.631.85 3.354-1.01 1.754-2.71-.877-2.392L2.823.182" id="i"/>
    <path d="M.037 4.168v2.764l2.631.85 3.354-1.01 1.754-2.71-.877-2.392L2.823.182" id="k"/>
    <path d="M.23.12h38.594v39.153H.23z" id="m"/>
    <path d="M.134.07h29.954v9.608H.134z" id="o"/>
    <path d="M.984 1.67L.107 4.062l1.754 2.71 3.353 1.01 2.631-.85V4.168L5.06.182" id="q"/>
    <path d="M.984 1.67L.107 4.062l1.754 2.71 3.353 1.01 2.631-.85V4.168L5.06.182" id="s"/>
    <path d="M.984 1.67L.107 4.062l1.754 2.71 3.353 1.01 2.631-.85V4.168L5.06.182" id="u"/>
  </defs>
  <g id="g2327">
    <path style="fill-rule:evenodd;fill:#ffffff" id="path1024" d="M 94.318,34.25 H 92.613 V 50.4 h 1.754 c 4.719,0 7.795,-3.219 7.795,-8.075 0,-4.812 -3.129,-8.074 -7.844,-8.074 z m 0.016,-5.354 c 4.112,0 7.332,1.678 9.565,3.954 2.339,2.413 3.508,5.585 3.508,9.517 0,3.932 -1.17,7.093 -3.508,9.484 -2.576,2.624 -5.765,3.937 -9.565,3.937 H 87.368 V 28.913 h 6.966 z m 22.021,7.64 c -1.56,1.624 -2.339,3.554 -2.339,5.79 0,2.257 0.78,4.187 2.339,5.788 1.548,1.59 3.426,2.386 5.635,2.386 2.176,0 4.049,-0.795 5.619,-2.386 1.57,-1.59 2.354,-3.52 2.354,-5.789 0,-2.246 -0.784,-4.176 -2.354,-5.789 -1.56,-1.601 -3.432,-2.402 -5.62,-2.402 -2.219,0 -4.097,0.801 -5.634,2.402 M 131.376,32.7 c 2.61,2.68 3.914,5.9 3.914,9.659 0,3.77 -1.304,6.984 -3.914,9.642 -2.598,2.647 -5.727,3.97 -9.386,3.97 -3.67,-0.01 -6.799,-1.334 -9.387,-3.97 -2.598,-2.67 -3.897,-5.883 -3.897,-9.642 0,-3.748 1.3,-6.968 3.897,-9.66 2.61,-2.68 5.738,-4.02 9.387,-4.02 3.648,0 6.777,1.34 9.386,4.02 M 149.84,28.73 c 4.042,0 7.264,1.828 9.403,3.986 l -3.752,3.854 c -1.591,-1.613 -3.464,-2.419 -5.618,-2.419 -2.198,0 -4.071,0.806 -5.62,2.419 -1.558,1.601 -2.338,3.53 -2.338,5.789 0,2.257 0.78,4.187 2.339,5.789 1.537,1.6 3.41,2.402 5.619,2.402 3.402,0 6.031,-2.172 7.177,-4.705 h -7.47 V 40.69 h 13.447 c 0.374,5.026 -1.232,8.675 -3.817,11.311 -2.609,2.658 -5.738,3.987 -9.386,3.987 -3.681,0 -6.805,-1.329 -9.37,-3.987 -2.599,-2.647 -3.898,-5.861 -3.898,-9.642 0,-3.748 1.3,-6.968 3.897,-9.66 2.577,-2.68 5.7,-4.02 9.37,-4.02 l 0.017,0.05 z m 31.293,0.1 v 5.388 H 170.61 v 5.421 h 7.892 v 5.389 h -7.892 v 5.422 h 10.523 v 5.371 H 165.348 V 28.83 Z M 195.7,55.972 c -3.66,-0.011 -6.783,-1.335 -9.37,-3.971 -2.599,-2.67 -3.898,-5.883 -3.898,-9.643 0,-3.747 1.299,-6.967 3.897,-9.658 2.61,-2.68 5.733,-4.02 9.37,-4.02 l -0.016,0.066 c 4.042,0 7.256,1.844 9.42,3.987 l -3.752,3.854 c -1.58,-1.602 -3.46,-2.403 -5.635,-2.403 -2.209,0 -4.082,0.801 -5.62,2.403 -1.558,1.623 -2.338,3.553 -2.338,5.788 0,2.258 0.78,4.188 2.339,5.79 1.548,1.59 3.42,2.385 5.619,2.385 2.208,0 4.092,-0.801 5.65,-2.402 L 205.119,52 c -2.148,2.187 -5.335,3.97 -9.419,3.97 m 24.537,-9.04 -2.387,-5.689 -2.42,5.689 z m -2.404,-18.585 11.953,27.443 h -5.7 l -1.77,-4.087 h -8.964 l -1.77,4.087 h -5.685 z m 20.222,22.149 c 1.453,0 3.057,-1.24 3.057,-2.732 0,-2.456 -3.208,-2.798 -5.018,-3.442 -3.192,-1.118 -6.01,-3.81 -6.01,-7.472 0,-4.535 3.58,-8.189 7.995,-8.189 4.025,0 7.36,3.067 7.9,7.055 l -5.224,1.134 c 0,-1.476 -1.207,-2.716 -2.645,-2.716 -1.46,0 -2.667,1.24 -2.667,2.732 0,2.423 2.985,3.067 4.803,3.622 3.303,0.979 6.217,3.564 6.217,7.308 0,4.535 -3.962,8.197 -8.368,8.197 -4.05,0 -7.71,-3.05 -8.306,-7.055 l 5.225,-1.142 c 0,1.501 1.588,2.725 3.065,2.725 z m 15.927,-21.598 v 10.76 h 8.753 v -10.76 h 5.245 v 26.892 h -5.245 V 45.011 h -8.753 v 10.777 h -5.246 V 28.896 Z" fill="#18171d"/>
    <g style="fill:none;fill-rule:evenodd" id="g1031">
      <mask fill="#ffffff" id="b">
        <use height="100%" width="100%" y="0" x="0" id="use1026" xlink:href="#a"/>
      </mask>
      <path id="path1029" mask="url(#b)" d="m 75.173,1.184 -3.928,-1.062 -5.58,3.044 -9.441,7.645 -4.755,-1.416 -5.168,-0.92 -7.75,0.92 -7.75,-0.92 -5.168,0.92 -4.754,1.416 L 11.439,3.166 5.856,0.122 1.93,1.184 0,4.157 v 11.396 l 1.378,4.743 0.138,4.742 3.032,6.23 0.206,6.565 -1.378,7.38 -0.689,9.06 3.446,5.733 5.374,4.708 1.172,1.026 4.272,9.131 6.639,4.857 2.457,1.797 12.502,2.69 h 0.004 l 12.503,-2.69 2.457,-1.797 6.639,-4.857 4.272,-9.13 1.171,-1.027 5.375,-4.708 3.445,-5.733 -0.689,-9.06 -1.378,-7.38 0.207,-6.565 3.031,-6.23 0.138,-4.742 1.379,-4.743 V 4.157 Z" fill="#cc8e58"/>
    </g>
    <path style="fill-rule:evenodd" id="path1033" d="m 54.501,26.525 -3.652,-0.637 -1.516,-6.442 -10.782,12.244 -7.75,-8.8 -3.032,-3.444 -1.516,6.442 -3.652,0.637 -2.894,3.114 1.533,4.478 0.879,-2.39 4.083,-1.486 2.79,3.982 0.07,2.76 -3.015,10.07 -1.473,7.928 7.795,-8.388 4.07,-1.38 2.112,-13.51 2.113,13.51 4.07,1.38 7.795,8.388 -1.473,-7.928 -3.015,-10.07 0.07,-2.76 2.79,-3.982 4.082,1.487 0.879,2.389 1.533,-4.478 z" fill="#cc8e58"/>
    <path style="fill-rule:evenodd" id="path1035" d="M 16.744,12.297 11.163,5.856 5.237,4.015 2.894,4.581 1.998,8.545 v 7.15 l 3.17,5.804 5.53,3.54 5.495,-4.885 z" fill="#2d2113"/>
    <path style="fill-rule:evenodd" id="path1037" d="m 38.553,30.241 -1.413,-14.139 1.413,0.23 z" fill="#2c1800"/>
    <g style="fill:none;fill-rule:evenodd" id="g1044">
      <mask fill="#ffffff" id="d">
        <use height="100%" width="100%" y="0" x="0" id="use1039" xlink:href="#c"/>
      </mask>
      <path id="path1042" mask="url(#d)" d="M 26.202,10.527 20.879,10.81 11.439,3.166 5.856,0.122 1.93,1.183 0,4.157 v 7.22 l 1.998,1.486 V 8.545 l 0.896,-3.964 2.343,-0.566 5.926,1.84 5.581,6.442 -0.551,7.857 -5.495,4.884 -3.6,11.946 6.752,2.707 5.427,-6.017 1.963,0.443 -1.533,-4.478 1.985,-2.136 0.91,-0.978 3.651,-0.637 1.516,-6.442 3.549,-0.283 3.01,-3.06 2.502,3.768 1.723,11.821 V 12.297 Z" fill="#a8633a"/>
    </g>
    <path style="fill-rule:evenodd" id="path1046" d="m 6.133,60.006 -0.752,-8.884 3.997,-9.556 4.472,-1.875 -6.753,-2.707 16.986,-24.12 -7.89,7.29 -5.495,4.884 -6.15,6.23 -1.172,13.944 -0.689,9.06 z" fill="#cc8e58"/>
    <path style="fill-rule:evenodd" id="path1048" d="m 21.774,25.322 5.995,-5.876 -1.516,6.442 -3.652,0.637 -1.223,1.316 z" fill="#a8633a"/>
    <path style="fill-rule:evenodd" id="path1050" d="m 26.047,66.554 -4.273,-3.787 -3.583,-13.166 1.947,-6.795 -0.861,-5.823 6.77,10.07 4.754,-2.195 5.638,0.354 -0.47,3.327 -3.928,1.911 -1.24,3.186 0.62,2.831 1.135,1.308 -2.789,7.08 h -3.204 l -2.48,-3.433 V 63.9 Z" fill="#ebe8db"/>
    <path style="fill-rule:evenodd" id="path1052" d="m 16.193,20.154 0.551,-7.857 4.496,1.557 2.843,-0.99 z m -0.689,-6.866 0.689,6.866 0.551,-7.857 -3.1,-3.504 z" fill="#5d2900"/>
    <g style="fill:none;fill-rule:evenodd" id="g1059" transform="translate(0,11.213)">
      <mask fill="#ffffff" id="f">
        <use height="100%" width="100%" y="0" x="0" id="use1054" xlink:href="#e"/>
      </mask>
      <path id="path1057" mask="url(#f)" d="M 4.548,20.055 1.516,13.825 0,4.34 V 0.164 L 1.998,1.65 v 2.832 l 3.17,5.804 5.53,3.54 z" fill="#a8633a"/>
    </g>
    <path style="fill-rule:evenodd" id="path1061" d="m 21.24,34.117 v -3.398 l 5.685,-2.664 -0.723,2.186 -4.083,1.487 z" fill="#a8633a"/>
    <path style="fill-rule:evenodd" id="path1063" d="m 26.357,37.833 -3.36,-1.009 -1.757,-2.707 -1.964,-0.443 -1.085,1.204 1.085,2.105 1.105,1.643 5.666,8.427 3.014,-10.07 z" fill="#d6b795"/>
    <path style="fill-rule:evenodd" id="path1065" d="m 30.284,72.925 -1.559,-5.606 -2.679,-0.765 -4.272,-3.787 -1.26,-4.63 -5.32,6.718 -2.515,0.885 4.272,9.131 6.639,4.857 5.135,-2.669 4.914,-2.554 z" fill="#dbd5c3"/>
    <path style="fill-rule:evenodd" id="path1067" d="m 60.358,12.297 5.582,-6.441 5.926,-1.841 2.343,0.566 0.895,3.964 v 7.15 l -3.17,5.804 -5.53,3.54 -5.494,-4.885 z" fill="#2d2113"/>
    <path style="fill-rule:evenodd" id="path1069" d="m 48.11,36.983 v -2.76 l 2.791,-3.982 4.083,1.487 0.878,2.389 -1.757,2.707 -3.36,1.009 z" fill="#2c1800"/>
    <g style="fill:none;fill-rule:evenodd" id="g1092">
      <g id="g1076" transform="translate(48.42,30.403)">
        <mask fill="#ffffff" id="h">
          <use height="100%" width="100%" y="0" x="0" id="use1071" xlink:href="#g"/>
        </mask>
        <path id="path1074" mask="url(#h)" d="m 3.558,4.98 c 1.274,0 2.342,-0.907 2.63,-2.129 0.014,0.124 0.023,0.25 0.023,0.378 0,1.573 -1.163,2.848 -2.597,2.848 C 2.18,6.077 1.017,4.802 1.017,3.229 L 1.019,3.157 c 0.38,1.064 1.374,1.824 2.54,1.824" fill="#4d2f00"/>
      </g>
      <g id="g1083" transform="translate(48.42,30.403)">
        <mask fill="#ffffff" id="j">
          <use height="100%" width="100%" y="0" x="0" id="use1078" xlink:href="#i"/>
        </mask>
        <path id="path1081" mask="url(#j)" d="M 3.558,4.98 C 2.393,4.98 1.4,4.221 1.019,3.157 1.054,1.617 2.202,0.381 3.614,0.381 c 1.317,0 2.405,1.076 2.573,2.47 C 5.9,4.073 4.832,4.981 3.558,4.981" fill="#2c1800"/>
      </g>
      <g id="g1090" transform="translate(48.42,30.403)">
        <mask fill="#ffffff" id="l">
          <use height="100%" width="100%" y="0" x="0" id="use1085" xlink:href="#k"/>
        </mask>
        <path id="path1088" mask="url(#l)" d="M 4.68,3.318 6.022,2.892 c 0,0 -0.516,-1.435 -2.528,-1.116 0,0 1.032,0.904 1.186,1.542" fill="#ecd9cb"/>
      </g>
    </g>
    <g style="fill:none;fill-rule:evenodd" id="g1148">
      <path id="path1094" d="m 38.872,29.922 1.415,-13.99 -1.415,0.228 z" fill="#2c1800"/>
      <path id="path1096" d="m 45.39,49.919 -3.93,-1.891 h -5.171 l -3.931,1.89 -1.242,3.153 0.621,2.801 3.26,3.712 3.875,1.19 v 10e-4 h 0.004 v -10e-4 l 3.876,-1.19 3.26,-3.712 0.62,-2.801 z" fill="#262626"/>
      <path id="path1098" d="m 40.597,55.172 1.362,0.49 h 1.776 l 1.311,-2.346 -2.518,-1.821 -3.652,-0.77 h -0.004 l -3.652,0.77 -2.517,1.82 1.31,2.347 h 1.776 l 1.363,-0.49 -1.173,1.576 -3.106,0.418 2.123,2.418 3.876,1.19 h 0.004 l 3.876,-1.19 2.124,-2.418 -3.106,-0.418 z m 10.278,9 h -3.208 l -8.79,-1.995 v -10e-4 h -0.005 l -8.79,1.996 h -3.208 l -2.483,-3.397 v 2.451 l 1.966,2.627 3.725,1.05 4.914,-2.311 3.876,1.155 h 0.004 l 3.876,-1.155 4.915,2.311 3.725,-1.05 1.966,-2.627 v -2.451 z" fill="#000000"/>
      <path id="path1100" d="m 47.667,66.903 -4.915,-2.311 -3.878,1.155 -3.878,-1.155 -4.915,2.311 4.915,2.697 3.876,0.77 h 0.004 l 3.876,-0.77 z" fill="#918a85"/>
      <path id="path1102" d="m 47.667,64.172 -2.791,-7.006 -2.124,2.418 -3.878,1.19 -3.878,-1.19 -2.123,-2.418 -2.792,7.006 8.793,-1.996 z" fill="#5c524a"/>
      <path id="path1104" d="m 47.667,66.903 -4.915,2.697 -3.878,0.77 -3.878,-0.77 -4.915,-2.697 -1.043,-0.294 1.56,5.547 5.191,2.417 3.083,0.84 h 0.004 l 3.083,-0.84 5.19,-2.417 1.562,-5.547 z" fill="#ebe8db"/>
      <g id="g1111" transform="translate(38.642)">
        <mask fill="#ffffff" id="n">
          <use height="100%" width="100%" y="0" x="0" id="use1106" xlink:href="#m"/>
        </mask>
        <path id="path1109" mask="url(#n)" d="m 12.595,10.416 5.328,0.28 9.45,-7.564 5.588,-3.011 3.931,1.05 1.932,2.942 v 7.144 l -2,1.47 V 8.456 l -0.898,-3.922 -2.345,-0.56 -5.932,1.82 -5.587,6.374 0.552,7.775 5.5,4.832 3.605,11.82 -6.76,2.679 -5.432,-5.954 -1.966,0.438 1.535,-4.43 -1.987,-2.114 -0.91,-0.968 -3.656,-0.63 L 11.026,19.242 7.473,18.962 4.46,15.934 1.955,19.663 0.231,31.358 v -19.19 z" fill="#a8633a"/>
      </g>
      <path id="path1113" d="m 71.326,59.374 0.752,-8.79 -4,-9.456 -4.477,-1.855 6.76,-2.68 -17.003,-23.865 7.898,7.214 5.5,4.832 6.157,6.164 1.172,13.798 0.69,8.965 z" fill="#cc8e58"/>
      <path id="path1115" d="m 56.565,10.697 -4.76,-1.401 -5.173,-0.91 -7.758,0.91 -7.758,-0.91 -5.173,0.91 -4.76,1.4 5.33,-0.28 12.36,1.751 h 0.003 l 12.36,-1.75 z m -0.897,14.358 -6,-5.814 1.517,6.374 3.656,0.63 1.224,1.303 z" fill="#a8633a"/>
      <path id="path1117" d="m 51.392,65.853 4.276,-3.747 3.587,-13.028 -1.948,-6.723 0.862,-5.761 -6.777,9.963 -4.76,-2.171 -5.643,0.35 0.47,3.292 3.932,1.89 1.241,3.153 -0.62,2.801 -1.136,1.294 2.791,7.006 h 3.207 l 2.484,-3.397 v 2.451 z" fill="#ebe8db"/>
      <path id="path1119" d="m 38.876,31.354 10.791,-12.112 -3.552,-0.28 -3.014,-3.03 0.553,-2.434 -4.778,-1.33 h -0.004 l -4.777,1.33 0.552,2.434 -3.013,3.03 -3.553,0.28 10.791,12.112 v 0.004 l 0.002,-0.002 0.002,0.002 z" fill="#a8633a"/>
      <path id="path1121" d="m 61.256,19.942 -0.552,-7.775 -4.501,1.541 -2.845,-0.98 z" fill="#5d2900"/>
      <path id="path1123" d="M 61.945,13.148 61.255,19.942 60.704,12.167 63.808,8.7 Z" fill="#5d2900"/>
      <path id="path1125" d="m 72.913,30.938 3.035,-6.163 1.517,-9.386 v -4.132 l -2,1.47 v 2.802 l -3.173,5.743 -5.535,3.503 z m -16.71,2.819 v -3.362 l -5.69,-2.636 0.724,2.163 4.086,1.471 z" fill="#a8633a"/>
      <path id="path1127" d="m 44.994,34.3 1.638,-11.652 -7.76,8.71 z" fill="#cc8e58"/>
      <g id="g1134" transform="translate(23.763,73.65)">
        <mask fill="#ffffff" id="p">
          <use height="100%" width="100%" y="0" x="0" id="use1129" xlink:href="#o"/>
        </mask>
        <path id="path1132" mask="url(#p)" d="M 30.088,5.238 20.028,0.07 18.196,0.923 15.111,1.763 12.026,0.923 10.194,0.07 0.134,5.238 l 2.46,1.779 12.515,2.66 v 0.001 h 0.004 L 27.629,7.017 Z" fill="#807664"/>
      </g>
      <path id="path1136" d="m 15.96,37.287 -1.812,1.986 -4.477,1.855 -4,9.455 0.751,8.791 5.38,4.658 v -5.989 l 1.822,-5.36 3.68,-6.949 -0.26,-9.683 z m 52.118,3.841 -4.478,-1.855 -1.812,-1.986 -1.085,-1.236 -0.259,9.683 3.68,6.949 1.821,5.36 v 5.99 l 5.38,-4.659 0.752,-8.79 z" fill="#dbd5c3"/>
      <path id="path1138" d="m 58.169,33.32 -1.966,0.437 -1.759,2.68 -3.363,0.997 -2.707,-0.84 3.018,9.963 5.671,-8.338 1.106,-1.625 1.086,-2.084 z" fill="#d6b795"/>
      <path id="path1140" d="m 60.704,36.05 -1.449,-1.54 -1.086,2.084 -0.862,5.76 1.948,6.724 -2.325,8.446 5.326,6.648 2.517,0.875 4.935,-4.272 z" fill="#cfc7af"/>
      <path id="path1142" d="m 62.256,64.172 -5.326,-6.648 -1.262,4.582 -4.276,3.747 -2.681,0.756 -1.561,5.547 -3.358,1.564 4.919,2.527 5.14,2.641 6.646,-4.806 4.276,-9.035 z" fill="#dbd5c3"/>
      <path id="path1144" d="m 17.045,36.05 1.448,-1.54 1.087,2.084 0.862,5.76 -1.949,6.724 2.326,8.446 -5.326,6.648 -2.518,0.875 -4.935,-4.272 z" fill="#cfc7af"/>
      <path id="path1146" d="m 29.306,36.594 v -2.732 l -2.794,-3.94 -4.087,1.471 -0.88,2.364 1.76,2.68 3.362,0.997 z" fill="#2c1800"/>
    </g>
    <g style="fill:none;fill-rule:evenodd" id="g1171">
      <g id="g1155" transform="translate(21.395,30.403)">
        <mask fill="#ffffff" id="r">
          <use height="100%" width="100%" y="0" x="0" id="use1150" xlink:href="#q"/>
        </mask>
        <path id="path1153" mask="url(#r)" d="M 4.324,4.98 C 3.05,4.98 1.982,4.073 1.695,2.851 1.68,2.975 1.672,3.101 1.672,3.229 c 0,1.573 1.162,2.848 2.597,2.848 1.433,0 2.596,-1.275 2.596,-2.848 L 6.863,3.157 C 6.483,4.221 5.49,4.981 4.324,4.981" fill="#4d2f00"/>
      </g>
      <g id="g1162" transform="translate(21.395,30.403)">
        <mask fill="#ffffff" id="t">
          <use height="100%" width="100%" y="0" x="0" id="use1157" xlink:href="#s"/>
        </mask>
        <path id="path1160" mask="url(#t)" d="M 4.324,4.98 C 5.49,4.98 6.483,4.221 6.864,3.157 6.827,1.617 5.68,0.381 4.268,0.381 c -1.318,0 -2.405,1.076 -2.574,2.47 0.287,1.222 1.355,2.13 2.63,2.13" fill="#2c1800"/>
      </g>
      <g id="g1169" transform="translate(21.395,30.403)">
        <mask fill="#ffffff" id="v">
          <use height="100%" width="100%" y="0" x="0" id="use1164" xlink:href="#u"/>
        </mask>
        <path id="path1167" mask="url(#v)" d="M 3.202,3.318 1.861,2.892 c 0,0 0.516,-1.435 2.528,-1.116 0,0 -1.032,0.904 -1.187,1.542" fill="#ecd9cb"/>
      </g>
    </g>
    <g style="fill:none;fill-rule:evenodd" id="g1179">
      <path id="path1173" d="m 38.862,31.731 -2.62,16.764 h 5.244 z" fill="#d9aa8b"/>
      <path id="path1175" d="m 67.142,68.08 v -0.325 h 1.05 v 0.325 h -0.345 v 1.098 H 67.49 V 68.08 Z m 2.523,-0.33 h 0.13 v 1.428 h -0.37 v -0.634 l -0.301,0.317 h -0.04 l -0.3,-0.317 v 0.634 h -0.37 v -1.427 h 0.134 l 0.553,0.618 z" fill="#cc8e58"/>
      <path id="path1177" d="m 68.468,66.414 c -1.123,0 -2.037,0.92 -2.037,2.05 0,1.131 0.914,2.051 2.037,2.051 1.124,0 2.038,-0.92 2.038,-2.05 a 2.047,2.047 0 0 0 -2.038,-2.051 m 0,4.374 a 2.319,2.319 0 0 1 -2.308,-2.323 2.319,2.319 0 0 1 2.308,-2.324 2.319,2.319 0 0 1 2.309,2.324 2.319,2.319 0 0 1 -2.309,2.323" fill="#cc8e58"/>
    </g>
  </g>
</svg>